<?xml version="1.0" encoding="UTF-8" standalone="no"?>
<svg
   id="SVGRoot"
   width="300px"
   height="300px"
   version="1.1"
   viewBox="0 0 84.603 94.189"
   sodipodi:docname="logo2.svg"
   inkscape:version="1.2 (dc2aedaf03, 2022-05-15)"
   xmlns:inkscape="http://www.inkscape.org/namespaces/inkscape"
   xmlns:sodipodi="http://sodipodi.sourceforge.net/DTD/sodipodi-0.dtd"
   xmlns:xlink="http://www.w3.org/1999/xlink"
   xmlns="http://www.w3.org/2000/svg"
   xmlns:svg="http://www.w3.org/2000/svg">
  <defs
     id="defs27" />
  <sodipodi:namedview
     id="namedview25"
     pagecolor="#505050"
     bordercolor="#eeeeee"
     borderopacity="1"
     inkscape:showpageshadow="0"
     inkscape:pageopacity="0"
     inkscape:pagecheckerboard="0"
     inkscape:deskcolor="#505050"
     showgrid="false"
     inkscape:lockguides="true"
     inkscape:zoom="1.1078006"
     inkscape:cx="174.67042"
     inkscape:cy="155.2626"
     inkscape:window-width="1366"
     inkscape:window-height="699"
     inkscape:window-x="0"
     inkscape:window-y="0"
     inkscape:window-maximized="1"
     inkscape:current-layer="g20" />
  <g
     transform="matrix(.99341 0 0 .99341 -5.7141 -3.0574)"
     id="g22">
    <g
       transform="matrix(1.153 0 0 1.153 .72306 -6.6679)"
       id="g20">
      <path
         id="path2554"
         style="font-variation-settings:'wght' 700;fill:none;stroke:#242424;stroke-width:0.85916;stroke-dasharray:4.29576"
         transform="matrix(-0.99963,0.027283,-0.027424,-0.99962,0,-4.4866356e-8)"
         d="m -12.100998,-51.262001 a 31.867001,31.983 0 0 1 -31.867001,31.983 31.867001,31.983 0 0 1 -31.867,-31.983 31.867001,31.983 0 0 1 31.867,-31.983 31.867001,31.983 0 0 1 31.867001,31.983 z" />
      <path
         id="path2554-7"
         style="font-variation-settings:'wght' 700;display:inline;fill:none"
         transform="matrix(-0.37711999,0.92616001,0.92611001,0.37725,0,-4.4866356e-8)"
         d="M 67.515001,60.702 A 31.969,32.085999 0 0 1 35.546001,92.787998 31.969,32.085999 0 0 1 3.5770016,60.702 31.969,32.085999 0 0 1 35.546001,28.616001 31.969,32.085999 0 0 1 67.515001,60.702 Z" />
      <g
         stroke-linecap="round"
         id="g18">
        <path
           d="m34.95 57.821-7.7736 1.2541-2.1701 2.6424s5.8353 0.74391 6.9268 1.8355c1.0292 1.0292-2.273 3.0007-0.82112 3.839 1.3565 0.78318 2.1308-1.5782 3.1763-1.5017 1.0455 0.07645 3.1047 6.661 3.1047 6.661l2.3793-2.4572 0.41827-7.7481s4.29-4.8798 5.4609-5.5558c0.89124-0.51456 10.48 17.309 11.582 17.309 1.3967 0 1.94-1.4085 2.3963-2.1876 0.4563-0.77916-5.0945-23.481-5.0945-24.641 0-1.1377 14.126-11.833 9.5967-16.362-4.8217-4.8217-13.984 10.287-15.51 10.921-1.5262 0.63435-23.999-2.5356-25.531-2.0651-1.3381 0.41095-1.7656 2.4209-1.7656 2.4209s18.707 8.6731 18.409 9.3321c-0.77214 1.7093-4.7844 6.3031-4.7844 6.3031z"
           fill="#f39b1f"
           stroke-dasharray="2.8959 5.79181 2.8959  11.5836"
           stroke-width="2.8959"
           style="font-variation-settings:'wght' 700"
           id="path4" />
        <text
           fill="#afc6e9"
           font-family="sans-serif"
           font-size="9.1789px"
           letter-spacing="0.20653px"
           stroke-dasharray="0.8673, 1.7346, 0.8673, 3.46919"
           stroke-width="0.8673"
           style="font-variation-settings:'wght' 700"
           xml:space="preserve"
           id="text10"><textPath
             xlink:href="#path2554"
             id="textPath8"><tspan
               dx="0 0 0 0 0 0 0 0 0 0"
               dy="-2 0 0 0 0 0 0 0 0 0"
               rotate="0 0 0 0 0 0 0 0 0 0 0 0"
               fill="#121212"
               font-family="Comfortaa"
               font-size="9.1789px"
               stroke-width="0.8673"
               style="font-variant-ligatures:normal;font-variant-caps:normal;font-variant-numeric:normal;font-variant-east-asian:normal;font-variation-settings:'wght' 700"
               id="tspan6">TRAVEL TIME</tspan></textPath></text>
        <text
           transform="matrix(1.1275,0,0,1.1275,-3.0716,-8.632)"
           fill="#121212"
           font-family="Comfortaa"
           font-size="4.5895px"
           stroke-dasharray="0.867299, 1.7346, 0.867299, 3.46919"
           stroke-width="0.8673"
           style="font-variant-ligatures:normal;font-variant-caps:normal;font-variant-numeric:normal;font-variant-east-asian:normal"
           xml:space="preserve"
           id="text16"><textPath
             xlink:href="#path2554-7"
             id="textPath14"><tspan
               font-family="Comfortaa"
               font-size="4.5895px"
               stroke-dasharray="0.867299, 1.7346, 0.867299, 3.46919"
               stroke-width="0.8673"
               style="font-variant-ligatures:normal;font-variant-caps:normal;font-variant-numeric:normal;font-variant-east-asian:normal"
               id="tspan12">Know the world</tspan></textPath></text>
      </g>
    </g>
  </g>
</svg>
